
<svg width="59" height="25" viewBox="0 0 59 25" fill="none" xmlns="http://www.w3.org/2000/svg">
<path d="M5.48633 13.1758V18H2.33203V3.99609H7.27344C10.8021 3.99609 12.5664 5.48372 12.5664 8.45898C12.5664 9.86523 12.0586 11.0046 11.043 11.877C10.0339 12.7428 8.68294 13.1758 6.99023 13.1758H5.48633ZM5.48633 6.41797V10.7832H6.72656C8.40625 10.7832 9.24609 10.0475 9.24609 8.57617C9.24609 7.13737 8.40625 6.41797 6.72656 6.41797H5.48633ZM18.4746 18.2441C16.8079 18.2441 15.4961 17.7786 14.5391 16.8477C13.5885 15.9102 13.1133 14.6406 13.1133 13.0391C13.1133 11.3854 13.6081 10.0931 14.5977 9.16211C15.5872 8.22461 16.9251 7.75586 18.6113 7.75586C20.2715 7.75586 21.5736 8.22461 22.5176 9.16211C23.4616 10.0931 23.9336 11.3268 23.9336 12.8633C23.9336 14.5234 23.4453 15.8353 22.4688 16.7988C21.4987 17.7624 20.1673 18.2441 18.4746 18.2441ZM18.5527 10.1191C17.8236 10.1191 17.2572 10.3698 16.8535 10.8711C16.4499 11.3724 16.248 12.082 16.248 13C16.248 14.9206 17.0228 15.8809 18.5723 15.8809C20.0501 15.8809 20.7891 14.8945 20.7891 12.9219C20.7891 11.0534 20.0436 10.1191 18.5527 10.1191ZM35.4375 18H32.3613V16.4766H32.3125C31.5508 17.6549 30.5319 18.2441 29.2559 18.2441C26.9382 18.2441 25.7793 16.8411 25.7793 14.0352V8H28.8555V13.7617C28.8555 15.1745 29.4154 15.8809 30.5352 15.8809C31.0885 15.8809 31.5312 15.6888 31.8633 15.3047C32.1953 14.9141 32.3613 14.3867 32.3613 13.7227V8H35.4375V18ZM47.5664 8L43.5039 18.8008C42.5273 21.3984 41.056 22.6973 39.0898 22.6973C38.3411 22.6973 37.7259 22.6126 37.2441 22.4434V19.9824C37.6543 20.2233 38.1003 20.3438 38.582 20.3438C39.3763 20.3438 39.9297 19.9694 40.2422 19.2207L40.7695 17.9805L36.707 8H40.125L41.9902 14.084C42.1074 14.4616 42.1986 14.9076 42.2637 15.4219H42.3027C42.3613 15.0443 42.4688 14.6048 42.625 14.1035L44.5098 8H47.5664ZM57.127 18H54.207V16.5645H54.168C53.4974 17.6842 52.5046 18.2441 51.1895 18.2441C50.2194 18.2441 49.4544 17.9707 48.8945 17.4238C48.3411 16.8704 48.0645 16.1348 48.0645 15.2168C48.0645 13.2767 49.2135 12.1569 51.5117 11.8574L54.2266 11.4961C54.2266 10.4023 53.6341 9.85547 52.4492 9.85547C51.2578 9.85547 50.125 10.2103 49.0508 10.9199V8.5957C49.4805 8.37435 50.0664 8.17904 50.8086 8.00977C51.5573 7.84049 52.2376 7.75586 52.8496 7.75586C55.7012 7.75586 57.127 9.17839 57.127 12.0234V18ZM54.2266 13.9375V13.2637L52.4102 13.498C51.4076 13.6283 50.9062 14.0807 50.9062 14.8555C50.9062 15.207 51.0267 15.4967 51.2676 15.7246C51.515 15.946 51.847 16.0566 52.2637 16.0566C52.8431 16.0566 53.3151 15.8581 53.6797 15.4609C54.0443 15.0573 54.2266 14.5495 54.2266 13.9375Z" fill="black"/>
</svg>