<svg width="55" height="14" viewBox="0 0 55 14" fill="none" xmlns="http://www.w3.org/2000/svg">
<path d="M10.5366 4.63031C10.5366 5.65515 10.3632 6.56103 10.0166 7.34796C9.66993 8.13488 9.18035 8.74491 8.54785 9.17802C7.91535 9.61114 7.20379 9.82769 6.41317 9.82769C5.32312 9.82769 4.49538 9.43153 3.92995 8.63919C3.92542 8.63284 3.91807 8.629 3.91026 8.629V8.629C3.89698 8.629 3.88622 8.63977 3.88622 8.65305V13.6087C3.88622 13.7744 3.7519 13.9087 3.58622 13.9087H0.3C0.134315 13.9087 0 13.7765 0 13.6108C0 8.78459 0 1.80419 0 0.294753C0 0.129063 0.133125 4.77576e-06 0.298814 1.07198e-05C1.29652 4.65116e-05 4.57549 0.000164143 6.80544 0.000244141C8.00962 0.000244141 8.931 0.402859 9.56958 1.20809C10.2142 2.01332 10.5366 3.15406 10.5366 4.63031ZM6.59562 4.74926C6.59562 4.15754 6.48007 3.69393 6.24896 3.35841C6.02394 3.0229 5.67424 2.85515 5.19987 2.85515C4.78631 2.85515 4.45182 3.03205 4.19638 3.38586C3.94095 3.73968 3.81324 4.22465 3.81324 4.84077V5.02377C3.81324 5.61549 3.92271 6.08826 4.14165 6.44207C4.36059 6.79589 4.689 6.97279 5.12689 6.97279C5.59518 6.97279 5.95704 6.78064 6.21247 6.39632C6.4679 6.00591 6.59562 5.45689 6.59562 4.74926Z" fill="#333333"/>
<path d="M22.3959 4.74926C22.3959 6.32922 21.9185 7.57061 20.9637 8.47345C20.0149 9.37628 18.6861 9.82769 16.9771 9.82769C15.2803 9.82769 13.9575 9.38848 13.0088 8.51005C12.0661 7.62552 11.5948 6.40852 11.5948 4.85907C11.5948 3.86473 11.8168 3.00155 12.2607 2.26953C12.7047 1.5375 13.3372 0.976279 14.1582 0.585865C14.9793 0.195451 15.925 0.000244141 16.9954 0.000244141C18.1022 0.000244141 19.0601 0.204601 19.869 0.613316C20.6839 1.02203 21.3073 1.58935 21.7391 2.31528C22.177 3.0412 22.3959 3.85253 22.3959 4.74926ZM18.455 4.76756C18.455 3.49262 17.9684 2.85515 16.9954 2.85515C16.0223 2.85515 15.5357 3.52312 15.5357 4.85907C15.5357 6.26822 16.0284 6.97279 17.0136 6.97279C17.9745 6.97279 18.455 6.23772 18.455 4.76756Z" fill="#333333"/>
<path d="M37.3569 14.0002C36.992 14.0002 36.5998 13.9667 36.1801 13.8996C35.8423 13.8505 35.534 13.7816 35.2553 13.6929C35.1358 13.6549 35.0581 13.5419 35.0581 13.4165V11.2937C35.0581 11.0454 35.3634 10.8756 35.5965 10.9608C35.6402 10.9768 35.6858 10.9926 35.7331 11.0081C36.0372 11.1057 36.323 11.1545 36.5906 11.1545C37.3144 11.1545 37.7948 10.8678 38.032 10.2944L38.2857 9.67742C38.316 9.60374 38.3158 9.52103 38.285 9.44754L34.6025 0.644781C34.5198 0.447123 34.665 0.229002 34.8793 0.229002H38.4912C38.6288 0.229002 38.7488 0.322656 38.7822 0.456173L39.8565 4.74926C40.0709 5.57353 40.1891 6.13462 40.211 6.43254C40.2118 6.44314 40.2206 6.45122 40.2312 6.45122V6.45122C40.2413 6.45122 40.2498 6.4438 40.2512 6.43382C40.2691 6.30414 40.2927 6.16048 40.3218 6.00286C40.3575 5.8416 40.813 3.99333 41.6882 0.458044C41.7213 0.324171 41.8418 0.229002 41.9797 0.229002H45.096C45.3035 0.229002 45.4483 0.434488 45.3786 0.629852L42.0824 9.8643C41.5655 11.3405 40.9239 12.3989 40.1576 13.0395C39.3974 13.68 38.4638 14.0002 37.3569 14.0002Z" fill="#333333"/>
<path d="M48.3189 9.82769C47.437 9.82769 46.7468 9.56539 46.2481 9.04077C45.7493 8.51615 45.5 7.81462 45.5 6.93619C45.5 5.09393 46.6282 4.02639 48.8845 3.73358L50.9404 3.46566C51.0898 3.44619 51.2082 3.31599 51.1646 3.17173C51.1071 2.98137 50.9826 2.81789 50.7911 2.68129C50.5174 2.48608 50.1495 2.38848 49.6873 2.38848C48.7749 2.38848 47.8186 2.61587 46.8183 3.07066C46.6139 3.16359 46.3758 3.01796 46.3758 2.79342V0.947216C46.3758 0.827803 46.4463 0.719154 46.5574 0.675424C47.0297 0.489567 47.6016 0.334659 48.2733 0.210702C49.0335 0.0703967 49.6842 0.000244141 50.2255 0.000244141C51.8128 0.000244141 52.9623 0.341856 53.6738 1.02508C54.3915 1.70221 54.7503 2.83685 54.7503 4.429V9.52769C54.7503 9.69338 54.6157 9.82769 54.45 9.82769C51.3419 9.82769 51.0842 9.82769 48.3189 9.82769ZM48.9027 6.41462C48.9027 6.67083 48.9818 6.88129 49.1399 7.046C49.3041 7.2107 49.5352 7.29306 49.8332 7.29306C50.2407 7.29306 50.5691 7.14055 50.8185 6.83554C51.0739 6.53053 51.2016 6.14011 51.2016 5.6643V5.65212C51.2016 5.46998 51.0406 5.32986 50.8602 5.35499L49.888 5.49044C49.2311 5.60024 48.9027 5.90831 48.9027 6.41462Z" fill="#333333"/>
<path d="M24.5396 8.83031C25.0748 9.49523 25.8533 9.8277 26.875 9.8277H33.3804C33.5461 9.8277 33.6804 9.69338 33.6804 9.5277V0.529004C33.6804 0.363319 33.5461 0.229004 33.3804 0.229004H30.0942C29.9285 0.229004 29.7942 0.363319 29.7942 0.529004V5.53619C29.7942 5.99371 29.6969 6.34752 29.5023 6.59763C29.3137 6.84774 29.031 6.9728 28.6539 6.9728C27.9667 6.9728 27.623 6.51223 27.623 5.5911V0.529004C27.623 0.363318 27.4887 0.229004 27.323 0.229004H24.0368C23.8711 0.229004 23.7368 0.363318 23.7368 0.529004V5.88391C23.7368 7.18325 24.0044 8.16539 24.5396 8.83031Z" fill="#333333"/>
</svg>
