<svg width="289" height="188" fill="none" xmlns="http://www.w3.org/2000/svg"><path d="M235.861 18.286H49.498a6.433 6.433 0 00-6.433 6.433v123.7a6.433 6.433 0 006.433 6.433h186.363a6.433 6.433 0 006.433-6.433v-123.7a6.433 6.433 0 00-6.433-6.433z" fill="#fff"/><path d="M228.785 12.389H42.422a6.433 6.433 0 00-6.433 6.433v123.7a6.433 6.433 0 006.433 6.433h186.363a6.433 6.433 0 006.433-6.433v-123.7a6.433 6.433 0 00-6.433-6.433z" fill="#333" stroke="#333" stroke-width="1.446" stroke-linecap="round" stroke-linejoin="round"/><path d="M224.603 12.389H38.24a6.433 6.433 0 00-6.433 6.433v123.7a6.433 6.433 0 006.433 6.433h186.363a6.433 6.433 0 006.433-6.433v-123.7a6.433 6.433 0 00-6.433-6.433z" fill="#fff" stroke="#333" stroke-width="1.446" stroke-linecap="round" stroke-linejoin="round"/><path d="M38.24 148.95h186.363a6.435 6.435 0 006.433-6.433v-6.556H31.807v6.556a6.435 6.435 0 006.433 6.433z" fill="#EBEBEB" stroke="#333" stroke-width="1.446" stroke-linecap="round" stroke-linejoin="round"/><path d="M134.59 142.458a3.168 3.168 0 10-6.336 0 3.168 3.168 0 006.336 0z" fill="#D0D0D6" stroke="#333" stroke-width="1.446" stroke-linecap="round" stroke-linejoin="round"/><path d="M224.603 12.389H38.24a6.433 6.433 0 00-6.433 6.433h199.229a6.435 6.435 0 00-6.433-6.433v0z" fill="#EBEBEB" stroke="#333" stroke-width="1.446" stroke-linecap="round" stroke-linejoin="round"/><path d="M117.119 29.544H45.086v48.928h72.033V29.544z" fill="#DFDFDF"/><path d="M117.119 76.719H45.086v1.753h72.033v-1.753z" fill="#F0F0F0"/><path d="M51.782 32.937H48.48v3.302h3.302v-3.302zM58.392 36.245h-3.303M57.314 64.609l9.698-18.78 9.472 14.276 11.183-11.268 7.178 8.411 11.381 5.452" stroke="#333" stroke-width="1.446" stroke-linecap="round" stroke-linejoin="round"/><path d="M58.515 64.587a1.185 1.185 0 10-2.37 0 1.185 1.185 0 002.37 0v0zM88.852 48.837a1.185 1.185 0 10-2.37 0 1.185 1.185 0 002.37 0zM76.484 61.29a1.185 1.185 0 100-2.37 1.185 1.185 0 000 2.37zM96.04 57.248a1.185 1.185 0 10-2.369 0 1.185 1.185 0 002.37 0zM68.197 45.824a1.184 1.184 0 10-2.37 0 1.184 1.184 0 002.37 0zM107.411 62.7a1.186 1.186 0 00-2.347-.231 1.18 1.18 0 00.504 1.216 1.185 1.185 0 001.843-.985z" fill="#fff" stroke="#333" stroke-width="1.446" stroke-linecap="round" stroke-linejoin="round"/><path d="M57.314 70.57h48.912" stroke="#333" stroke-width="1.446" stroke-linecap="round" stroke-linejoin="round"/><path d="M113.506 32.937H94.727v3.302h18.779v-3.302z" fill="#fff"/><path d="M113.506 37.815h-9.58v3.303h9.58v-3.303z" fill="#495FFD"/><path d="M117.119 82.867H45.086v42.372h72.033V82.867z" fill="#DFDFDF"/><path d="M117.119 123.486H45.086v1.753h72.033v-1.753z" fill="#F0F0F0"/><path d="M51.782 86.26H48.48v3.303h3.302v-3.302zM58.392 89.568h-3.303" stroke="#333" stroke-width="1.446" stroke-linecap="round" stroke-linejoin="round"/><path d="M113.506 93.996H51.787v2.37h61.719v-2.37z" fill="#495FFD"/><path d="M113.506 99.604H51.787v2.369h61.719v-2.37zM90.036 105.217H51.787v2.369h38.25v-2.369z" fill="#fff"/><path d="M79.46 110.829H51.786v2.37h27.672v-2.37zM97.96 110.829H82.414v2.37H97.96v-2.37z" fill="#495FFD"/><path d="M68.62 116.437H51.787v2.369H68.62v-2.369z" fill="#fff"/><path d="M217.763 29.544h-93.032v12.115h93.032V29.544z" fill="#DFDFDF"/><path d="M217.763 41.654h-93.032v1.753h93.032v-1.753z" fill="#F0F0F0"/><path d="M128.125 32.937h3.307M134.735 32.937h3.307M131.427 31.656h-3.302v1.28h3.302v-1.28z" stroke="#333" stroke-width="1.446" stroke-linecap="round" stroke-linejoin="round"/><path d="M164.477 35.837h-33.044v2.37h33.044v-2.37z" fill="#495FFD"/><path d="M180.361 35.837h-13.869v2.37h13.869v-2.37z" fill="#fff"/><path d="M217.763 45.867h-93.032v12.116h93.032V45.867z" fill="#DFDFDF"/><path d="M217.763 57.983h-93.032v1.753h93.032v-1.753z" fill="#F0F0F0"/><path d="M128.125 49.26h3.307M134.735 49.26h3.307M131.427 47.98h-3.302v1.28h3.302v-1.28z" stroke="#333" stroke-width="1.446" stroke-linecap="round" stroke-linejoin="round"/><path d="M146.539 52.16h-15.106v2.37h15.106v-2.37zM209.127 52.16h-44.114v2.37h44.114v-2.37z" fill="#495FFD"/><path d="M162.916 52.16h-13.868v2.37h13.868v-2.37z" fill="#fff"/><path d="M217.763 62.19h-93.032v12.116h93.032V62.191z" fill="#DFDFDF"/><path d="M217.763 74.306h-93.032v1.753h93.032v-1.753z" fill="#F0F0F0"/><path d="M128.125 65.59h3.307M134.735 65.59h3.307M131.427 64.308h-3.302v1.282h3.302v-1.282z" stroke="#333" stroke-width="1.446" stroke-linecap="round" stroke-linejoin="round"/><path d="M164.477 68.484h-33.044v2.37h33.044v-2.37z" fill="#495FFD"/><path d="M217.763 78.514h-93.032V90.63h93.032V78.514z" fill="#DFDFDF"/><path d="M217.763 90.63h-93.032v1.753h93.032V90.63z" fill="#F0F0F0"/><path d="M128.125 81.913h3.307M134.735 81.913h3.307M131.427 80.632h-3.302v1.281h3.302v-1.281z" stroke="#333" stroke-width="1.446" stroke-linecap="round" stroke-linejoin="round"/><path d="M154.581 84.808h-23.148v2.37h23.148v-2.37z" fill="#495FFD"/><path d="M196.229 84.808h-38.968v2.37h38.968v-2.37zM205.572 84.808h-6.416v2.37h6.416v-2.37z" fill="#fff"/><path d="M217.763 97.561h-93.032v27.678h93.032V97.561z" fill="#DFDFDF"/><path d="M217.763 123.486h-93.032v1.753h93.032v-1.753z" fill="#F0F0F0"/><path d="M131.427 100.96h-3.302v3.302h3.302v-3.302zM138.042 104.262h-3.307" stroke="#333" stroke-width="1.446" stroke-linecap="round" stroke-linejoin="round"/><path d="M155.728 104.718h-13.359v13.359h13.359v-13.359z" fill="#495FFD"/><path d="M145.74 114.711l6.621-6.621M152.361 114.711l-6.621-6.621" stroke="#333" stroke-width="1.446" stroke-linecap="round" stroke-linejoin="round"/><path d="M173.965 104.718h-13.359v13.359h13.359v-13.359z" fill="#495FFD"/><path d="M163.978 114.711l6.615-6.621" stroke="#333" stroke-width="1.446" stroke-linecap="round" stroke-linejoin="round"/><path d="M192.197 104.718h-13.359v13.359h13.359v-13.359z" fill="#495FFD"/><path d="M188.82 108.401h-5.994v5.993h5.994v-5.993z" stroke="#333" stroke-width="1.446" stroke-linecap="round" stroke-linejoin="round"/><path d="M210.435 104.718h-13.359v13.359h13.359v-13.359z" fill="#495FFD"/><g style="mix-blend-mode:multiply" opacity=".45"><path d="M272.797 88.625h-77.415a3.86 3.86 0 00-3.86 3.86V169.9a3.86 3.86 0 003.86 3.86h77.415a3.86 3.86 0 003.86-3.86V92.485a3.86 3.86 0 00-3.86-3.86z" fill="#495FFD" opacity=".45"/><path d="M272.797 88.625h-77.415a3.86 3.86 0 00-3.86 3.86V169.9a3.86 3.86 0 003.86 3.86h77.415a3.86 3.86 0 003.86-3.86V92.485a3.86 3.86 0 00-3.86-3.86z" stroke="#495FFD" stroke-width="1.446" stroke-linecap="round" stroke-linejoin="round" opacity=".45"/></g><path d="M269.044 84.872h-77.415a3.86 3.86 0 00-3.86 3.86v77.415a3.86 3.86 0 003.86 3.86h77.415a3.86 3.86 0 003.86-3.86V88.732a3.86 3.86 0 00-3.86-3.86z" fill="#fff"/><path d="M269.044 84.872h-77.415a3.86 3.86 0 00-3.86 3.86v77.415a3.86 3.86 0 003.86 3.86h77.415a3.86 3.86 0 003.86-3.86V88.732a3.86 3.86 0 00-3.86-3.86zM192.776 92.544l3.045-3.045M192.776 89.499l3.045 3.045" stroke="#333" stroke-width="1.446" stroke-linecap="round" stroke-linejoin="round"/><path d="M204.355 113.424a6.471 6.471 0 00-6.459 6.47v1.566h12.946v-1.566a6.47 6.47 0 00-6.487-6.47zM208.033 108.46a3.683 3.683 0 00-2.266-3.402 3.684 3.684 0 00-4.01.794 3.676 3.676 0 002.599 6.28 3.678 3.678 0 003.677-3.672z" fill="#495FFD"/><path d="M212.895 98.751h-17.074v22.714h17.074V98.751z" stroke="#333" stroke-width="1.446" stroke-linecap="round" stroke-linejoin="round"/><path d="M217.13 116.581h18.779v-3.302H217.13v3.302zM217.13 121.46h9.58v-3.302h-9.58v3.302z" fill="#495FFD"/><path d="M264.857 119.444c0-.398-.118-.788-.339-1.12a2.02 2.02 0 00-2.069-.857 2.013 2.013 0 00-1.584 1.584 2.012 2.012 0 00.857 2.069 2.01 2.01 0 002.545-.251c.378-.378.59-.89.59-1.425v0z" stroke="#333" stroke-width="1.446" stroke-linecap="round" stroke-linejoin="round"/><path d="M264.858 126.751h-69.037v13.573h69.037v-13.573z" fill="#DFDFDF"/><path d="M261.196 129.823h-61.719v2.369h61.719v-2.369z" fill="#495FFD"/><path d="M222.808 135.435h-23.331v2.37h23.331v-2.37z" fill="#fff"/><path d="M264.858 145.61h-69.037v13.574h69.037V145.61z" fill="#DFDFDF"/><path d="M227.718 148.687h-28.241v2.37h28.241v-2.37z" fill="#495FFD"/><path d="M261.201 148.687h-31.392v2.37h31.392v-2.37zM234.896 154.3h-22.548v2.37h22.548v-2.37zM210.263 154.3h-10.786v2.37h10.786v-2.37z" fill="#fff"/><path d="M190.852 129.86c-8.202 0-7.763-6.883-16.844-6.883a4.423 4.423 0 01-4.423-4.423v-1.763" stroke="#333" stroke-width="1.446" stroke-linecap="round" stroke-linejoin="round"/><path d="M193.897 129.86a1.522 1.522 0 00-3.045 0v0a1.522 1.522 0 001.522 1.523v0a1.526 1.526 0 001.523-1.523v0zM171.092 115.268a1.527 1.527 0 00-1.523-1.528v0a1.536 1.536 0 00-1.527 1.528v0a1.527 1.527 0 001.527 1.523v0a1.526 1.526 0 001.523-1.523v0z" fill="#333" stroke="#333" stroke-width="1.446" stroke-linecap="round" stroke-linejoin="round"/><g style="mix-blend-mode:multiply" opacity=".45"><path d="M284.14 19.894h-51.731a3.86 3.86 0 00-3.86 3.86v51.731a3.86 3.86 0 003.86 3.86h51.731a3.86 3.86 0 003.86-3.86V23.755a3.86 3.86 0 00-3.86-3.86z" fill="#495FFD" opacity=".45"/><path d="M284.14 19.894h-51.731a3.86 3.86 0 00-3.86 3.86v51.731a3.86 3.86 0 003.86 3.86h51.731a3.86 3.86 0 003.86-3.86V23.755a3.86 3.86 0 00-3.86-3.86z" stroke="#495FFD" stroke-width="1.446" stroke-linecap="round" stroke-linejoin="round" opacity=".45"/></g><path d="M280.388 16.141h-51.732a3.86 3.86 0 00-3.86 3.86v51.732a3.86 3.86 0 003.86 3.86h51.732a3.86 3.86 0 003.859-3.86V20a3.86 3.86 0 00-3.859-3.86z" fill="#fff"/><path d="M280.388 16.141h-51.732a3.86 3.86 0 00-3.86 3.86v51.732a3.86 3.86 0 003.86 3.86h51.732a3.86 3.86 0 003.859-3.86V20a3.86 3.86 0 00-3.859-3.86zM229.803 23.813l3.045-3.045M229.803 20.768l3.045 3.045M211.973 32.808c9.081 0 8.642 6.883 16.844 6.883" stroke="#333" stroke-width="1.446" stroke-linecap="round" stroke-linejoin="round"/><path d="M231.862 39.691a1.533 1.533 0 00-.446-1.076 1.527 1.527 0 00-1.077-.446v0a1.52 1.52 0 00-1.522 1.523v0a1.52 1.52 0 001.522 1.522v0a1.525 1.525 0 001.523-1.523v0zM211.973 32.808a1.52 1.52 0 00-1.522-1.522v0a1.53 1.53 0 00-1.528 1.522 1.527 1.527 0 001.528 1.523v0a1.52 1.52 0 001.522-1.523v0zM231.862 49.132a1.532 1.532 0 00-.446-1.077 1.526 1.526 0 00-1.077-.446v0a1.52 1.52 0 00-1.522 1.523v0a1.52 1.52 0 001.522 1.522v0a1.525 1.525 0 001.523-1.522zM211.973 49.132a1.52 1.52 0 00-1.522-1.523 1.531 1.531 0 00-1.528 1.523 1.527 1.527 0 001.528 1.522v0a1.52 1.52 0 001.522-1.522z" fill="#333" stroke="#333" stroke-width="1.446" stroke-linecap="round" stroke-linejoin="round"/><path d="M211.973 49.132h16.844M211.973 65.46c9.081 0 8.642-6.888 16.844-6.888" stroke="#333" stroke-width="1.446" stroke-linecap="round" stroke-linejoin="round"/><path d="M231.862 58.572a1.53 1.53 0 01-1.523 1.528 1.53 1.53 0 01-1.522-1.528v0a1.52 1.52 0 011.522-1.522v0a1.525 1.525 0 011.523 1.522v0zM211.973 65.46a1.52 1.52 0 01-1.522 1.523v0a1.53 1.53 0 01-1.528-1.522 1.532 1.532 0 011.528-1.528v0a1.53 1.53 0 011.522 1.528z" fill="#333" stroke="#333" stroke-width="1.446" stroke-linecap="round" stroke-linejoin="round"/><g style="mix-blend-mode:multiply" opacity=".45"><path d="M124.898 144.324H65.077a3.86 3.86 0 00-3.86 3.859v28.89a3.86 3.86 0 003.86 3.86h59.821a3.861 3.861 0 003.86-3.86v-28.89a3.86 3.86 0 00-3.86-3.859z" fill="#495FFD" opacity=".45"/><path d="M124.898 144.324H65.077a3.86 3.86 0 00-3.86 3.859v28.89a3.86 3.86 0 003.86 3.86h59.821a3.861 3.861 0 003.86-3.86v-28.89a3.86 3.86 0 00-3.86-3.859z" stroke="#495FFD" stroke-width="1.446" stroke-linecap="round" stroke-linejoin="round" opacity=".45"/></g><path d="M121.145 140.571H61.324a3.86 3.86 0 00-3.86 3.86v28.889a3.86 3.86 0 003.86 3.86h59.821a3.86 3.86 0 003.86-3.86v-28.889a3.86 3.86 0 00-3.86-3.86z" fill="#fff"/><path d="M121.145 140.571H61.324a3.86 3.86 0 00-3.86 3.86v28.889a3.86 3.86 0 003.86 3.86h59.821a3.86 3.86 0 003.86-3.86v-28.889a3.86 3.86 0 00-3.86-3.86zM62.471 148.248l3.045-3.051M62.471 145.197l3.045 3.051" stroke="#333" stroke-width="1.446" stroke-linecap="round" stroke-linejoin="round"/><path d="M91.42 142.581c0-8.202-6.884-7.762-6.884-16.843a4.425 4.425 0 00-4.428-4.423H78.35" stroke="#333" stroke-width="1.446" stroke-linecap="round" stroke-linejoin="round"/><path d="M92.942 144.104a1.523 1.523 0 10-3.046 0 1.523 1.523 0 003.046 0zM76.822 122.838a1.525 1.525 0 01-1.522-1.523v0a1.526 1.526 0 011.522-1.528 1.528 1.528 0 011.077 2.605 1.525 1.525 0 01-1.077.446v0z" fill="#333" stroke="#333" stroke-width="1.446" stroke-linecap="round" stroke-linejoin="round"/><g style="mix-blend-mode:multiply" opacity=".45"><path d="M175.311 162.293h-31.656a3.86 3.86 0 00-3.86 3.86v17.176a3.86 3.86 0 003.86 3.86h31.656a3.86 3.86 0 003.859-3.86v-17.176a3.86 3.86 0 00-3.859-3.86z" fill="#495FFD" opacity=".45"/><path d="M175.311 162.293h-31.656a3.86 3.86 0 00-3.86 3.86v17.176a3.86 3.86 0 003.86 3.86h31.656a3.86 3.86 0 003.859-3.86v-17.176a3.86 3.86 0 00-3.859-3.86z" stroke="#495FFD" stroke-width="1.446" stroke-linecap="round" stroke-linejoin="round" opacity=".45"/></g><path d="M171.558 158.541h-31.655a3.86 3.86 0 00-3.86 3.859v17.176a3.86 3.86 0 003.86 3.86h31.655a3.86 3.86 0 003.86-3.86V162.4a3.86 3.86 0 00-3.86-3.859z" fill="#fff"/><path d="M171.558 158.541h-31.655a3.86 3.86 0 00-3.86 3.859v17.176a3.86 3.86 0 003.86 3.86h31.655a3.86 3.86 0 003.86-3.86V162.4a3.86 3.86 0 00-3.86-3.859zM141.05 166.217l3.045-3.05M141.05 163.167l3.045 3.05" stroke="#333" stroke-width="1.446" stroke-linecap="round" stroke-linejoin="round"/><path d="M150.453 176.263a1.434 1.434 0 00-.884-1.322 1.432 1.432 0 00-1.87 1.87 1.426 1.426 0 001.322.884 1.433 1.433 0 001.324-.883c.072-.174.108-.36.108-.549zM165.377 165.713a1.431 1.431 0 10-1.426 1.432 1.424 1.424 0 001.426-1.432z" fill="#333" stroke="#333" stroke-width="1.446" stroke-linecap="round" stroke-linejoin="round"/><path d="M149.021 176.263s12.432 3.292 14.93-10.55M121.236 165.617c9.082 0 8.642 6.883 16.844 6.883" stroke="#333" stroke-width="1.446" stroke-linecap="round" stroke-linejoin="round"/><path d="M141.125 172.5a1.526 1.526 0 00-1.523-1.523v0a1.529 1.529 0 00-1.527 1.523 1.536 1.536 0 001.527 1.528v0a1.527 1.527 0 001.523-1.528v0zM121.236 165.617a1.522 1.522 0 00-1.522-1.523v0a1.526 1.526 0 00-1.523 1.523v0a1.529 1.529 0 001.523 1.528 1.53 1.53 0 001.522-1.528z" fill="#333" stroke="#333" stroke-width="1.446" stroke-linecap="round" stroke-linejoin="round"/><g style="mix-blend-mode:multiply" opacity=".45"><path d="M38.584 95.6H9.48a4.106 4.106 0 00-4.107 4.106v51.689a4.107 4.107 0 004.107 4.106h29.103a4.107 4.107 0 004.107-4.106v-51.69a4.106 4.106 0 00-4.106-4.106z" fill="#495FFD" opacity=".45"/><path d="M38.584 95.6H9.48a4.106 4.106 0 00-4.107 4.106v51.689a4.107 4.107 0 004.107 4.106h29.103a4.107 4.107 0 004.107-4.106v-51.69a4.106 4.106 0 00-4.106-4.106z" stroke="#495FFD" stroke-width="1.446" stroke-linecap="round" stroke-linejoin="round" opacity=".45"/></g><path d="M34.83 91.847H5.728a4.106 4.106 0 00-4.106 4.106v51.689a4.106 4.106 0 004.106 4.106h29.104a4.106 4.106 0 004.106-4.106V95.953a4.106 4.106 0 00-4.106-4.106z" fill="#fff"/><path d="M34.83 91.847H5.728a4.106 4.106 0 00-4.106 4.106v51.689a4.106 4.106 0 004.106 4.106h29.104a4.106 4.106 0 004.106-4.106V95.953a4.106 4.106 0 00-4.106-4.106zM6.628 99.523l3.045-3.044M6.628 96.479l3.045 3.044" stroke="#333" stroke-width="1.446" stroke-linecap="round" stroke-linejoin="round"/><path d="M32.783 114.287a.414.414 0 00-.129-.279.384.384 0 00-.294-.102c-7.725.456-11.687-6.432-11.724-6.518a.41.41 0 00-.152-.14.411.411 0 00-.4 0 .41.41 0 00-.15.14c-.038.069-4.005 6.969-11.725 6.518a.37.37 0 00-.29.102.395.395 0 00-.133.279c0 .182-.713 18.457 12.437 20.5h.123c13.145-2.043 12.437-20.318 12.437-20.5z" fill="#495FFD"/><path d="M51.696 100.274c-9.081 0-8.642 6.883-16.844 6.883" stroke="#333" stroke-width="1.446" stroke-linecap="round" stroke-linejoin="round"/><path d="M31.807 107.157a1.52 1.52 0 011.523-1.522v0a1.52 1.52 0 011.522 1.522v0a1.524 1.524 0 01-1.522 1.523v0a1.525 1.525 0 01-1.523-1.523v0zM51.696 100.274a1.528 1.528 0 012.604-1.077c.286.286.446.673.446 1.077v0a1.52 1.52 0 01-1.522 1.522v0a1.529 1.529 0 01-1.528-1.522z" fill="#333" stroke="#333" stroke-width="1.446" stroke-linecap="round" stroke-linejoin="round"/><g style="mix-blend-mode:multiply" opacity=".45"><path d="M38.83 30.364H9.233a3.86 3.86 0 00-3.86 3.86v43.191a3.86 3.86 0 003.86 3.86H38.83a3.86 3.86 0 003.86-3.86V34.223a3.86 3.86 0 00-3.86-3.86z" fill="#495FFD" opacity=".45"/><path d="M38.83 30.364H9.233a3.86 3.86 0 00-3.86 3.86v43.191a3.86 3.86 0 003.86 3.86H38.83a3.86 3.86 0 003.86-3.86V34.223a3.86 3.86 0 00-3.86-3.86z" stroke="#495FFD" stroke-width="1.446" stroke-linecap="round" stroke-linejoin="round" opacity=".45"/></g><path d="M35.078 26.611H5.48a3.86 3.86 0 00-3.86 3.86v43.192a3.86 3.86 0 003.86 3.86h29.598a3.86 3.86 0 003.86-3.86V30.47a3.86 3.86 0 00-3.86-3.86z" fill="#fff"/><path d="M35.078 26.611H5.48a3.86 3.86 0 00-3.86 3.86v43.192a3.86 3.86 0 003.86 3.86h29.598a3.86 3.86 0 003.86-3.86V30.47a3.86 3.86 0 00-3.86-3.86zM6.628 34.282l3.045-3.044M6.628 31.238l3.045 3.044" stroke="#333" stroke-width="1.446" stroke-linecap="round" stroke-linejoin="round"/><path d="M9.682 53.158l5.367 1.892v2.637L6.942 54.25v-2.222l8.107-3.437v2.636l-5.367 1.93zm8.465 6.995h-2.024l5.046-14.886h2.025l-5.047 14.886zm11.91-7.023l-5.47-1.912v-2.617l8.201 3.436v2.213l-8.2 3.446v-2.627l5.47-1.94z" fill="#333"/><path d="M51.696 45.974c-9.081 0-8.642-6.883-16.844-6.883" stroke="#333" stroke-width="1.446" stroke-linecap="round" stroke-linejoin="round"/><path d="M31.807 39.091a1.522 1.522 0 001.523 1.523v0a1.523 1.523 0 001.522-1.523v0a1.522 1.522 0 00-1.533-1.522v0a1.522 1.522 0 00-1.512 1.522v0zM51.696 45.974a1.529 1.529 0 001.528 1.523v0a1.522 1.522 0 001.522-1.523v0a1.522 1.522 0 00-1.522-1.522v0a1.528 1.528 0 00-1.528 1.522z" fill="#333" stroke="#333" stroke-width="1.446" stroke-linecap="round" stroke-linejoin="round"/><g style="mix-blend-mode:multiply" opacity=".45"><path d="M99.498 13.595H67.843a3.86 3.86 0 00-3.86 3.86V34.63a3.86 3.86 0 003.86 3.86h31.655a3.86 3.86 0 003.86-3.86V17.455a3.86 3.86 0 00-3.86-3.86z" fill="#495FFD" opacity=".45"/><path d="M99.498 13.595H67.843a3.86 3.86 0 00-3.86 3.86V34.63a3.86 3.86 0 003.86 3.86h31.655a3.86 3.86 0 003.86-3.86V17.455a3.86 3.86 0 00-3.86-3.86z" stroke="#495FFD" stroke-width="1.446" stroke-linecap="round" stroke-linejoin="round" opacity=".45"/></g><path d="M95.746 9.843H64.09a3.86 3.86 0 00-3.86 3.86v17.175a3.86 3.86 0 003.86 3.86h31.656a3.86 3.86 0 003.86-3.86V13.702a3.86 3.86 0 00-3.86-3.86z" fill="#fff"/><path d="M95.746 9.843H64.09a3.86 3.86 0 00-3.86 3.86v17.175a3.86 3.86 0 003.86 3.86h31.656a3.86 3.86 0 003.86-3.86V13.702a3.86 3.86 0 00-3.86-3.86zM65.232 17.52l3.045-3.05M65.232 14.47l3.045 3.05" stroke="#333" stroke-width="1.446" stroke-linecap="round" stroke-linejoin="round"/><path d="M94.98 152.05v11.287c0 1.875-.588 3.358-1.765 4.449-1.17 1.09-2.77 1.636-4.802 1.636-2 0-3.59-.53-4.767-1.589-1.177-1.059-1.777-2.515-1.8-4.367V152.05h3.53v11.31c0 1.123.267 1.942.8 2.46.542.51 1.288.765 2.237.765 1.985 0 2.993-1.043 3.025-3.13V152.05h3.542zm6.65 17.136H98.1V152.05h3.53v17.136zM256.959 37.315v11.287c0 1.875-.589 3.358-1.766 4.449-1.169 1.09-2.769 1.636-4.802 1.636-2 0-3.589-.53-4.766-1.589-1.177-1.06-1.777-2.515-1.801-4.366V37.315h3.531v11.31c0 1.123.267 1.943.8 2.46.542.51 1.287.765 2.236.765 1.986 0 2.994-1.043 3.025-3.13V37.315h3.543zm9.027 5.909l3.213-5.909h4.061l-4.991 8.498 5.12 8.639h-4.108l-3.295-6.003-3.295 6.003h-4.108l5.12-8.64-4.991-8.497h4.061l3.213 5.909z" fill="#333"/><g style="mix-blend-mode:multiply" opacity=".45"><path d="M195.859 19.733h-79.458a3.86 3.86 0 00-3.86 3.86v3.377a3.86 3.86 0 003.86 3.86h79.458a3.86 3.86 0 003.859-3.86v-3.377a3.86 3.86 0 00-3.859-3.86z" fill="#495FFD" opacity=".45"/><path d="M195.859 19.733h-79.458a3.86 3.86 0 00-3.86 3.86v3.377a3.86 3.86 0 003.86 3.86h79.458a3.86 3.86 0 003.859-3.86v-3.377a3.86 3.86 0 00-3.859-3.86z" stroke="#495FFD" stroke-width="1.446" stroke-linecap="round" stroke-linejoin="round" opacity=".45"/></g><path d="M192.867 16.742h-79.458a3.86 3.86 0 00-3.859 3.86v3.377a3.86 3.86 0 003.859 3.86h79.458a3.86 3.86 0 003.86-3.86v-3.377a3.86 3.86 0 00-3.86-3.86z" fill="#fff"/><path d="M192.867 16.742h-79.458a3.86 3.86 0 00-3.859 3.86v3.377a3.86 3.86 0 003.859 3.86h79.458a3.86 3.86 0 003.86-3.86v-3.377a3.86 3.86 0 00-3.86-3.86z" stroke="#333" stroke-width="1.446" stroke-linecap="round" stroke-linejoin="round"/><path d="M190.283 20.478h-57.789a1.811 1.811 0 100 3.624h57.789a1.813 1.813 0 001.812-1.812 1.815 1.815 0 00-1.812-1.812z" fill="#DFDFDF"/><path d="M179.004 20.478h-46.51a1.811 1.811 0 100 3.624h46.521l-.011-3.624z" fill="#495FFD"/><path d="M125.627 20.8h-3.045v3.045h3.045V20.8z" stroke="#333" stroke-width="1.446" stroke-linecap="round" stroke-linejoin="round"/><g style="mix-blend-mode:multiply" opacity=".45"><path d="M195.859 4.283h-79.458a3.86 3.86 0 00-3.86 3.86v3.377a3.86 3.86 0 003.86 3.86h79.458a3.86 3.86 0 003.859-3.86V8.143a3.86 3.86 0 00-3.859-3.86z" fill="#495FFD" opacity=".45"/><path d="M195.859 4.283h-79.458a3.86 3.86 0 00-3.86 3.86v3.377a3.86 3.86 0 003.86 3.86h79.458a3.86 3.86 0 003.859-3.86V8.143a3.86 3.86 0 00-3.859-3.86z" stroke="#495FFD" stroke-width="1.446" stroke-linecap="round" stroke-linejoin="round" opacity=".45"/></g><path d="M192.867 1.292h-79.458a3.86 3.86 0 00-3.859 3.86v3.377a3.86 3.86 0 003.859 3.86h79.458a3.86 3.86 0 003.86-3.86V5.152a3.86 3.86 0 00-3.86-3.86z" fill="#fff"/><path d="M192.867 1.292h-79.458a3.86 3.86 0 00-3.859 3.86v3.377a3.86 3.86 0 003.859 3.86h79.458a3.86 3.86 0 003.86-3.86V5.152a3.86 3.86 0 00-3.86-3.86z" stroke="#333" stroke-width="1.446" stroke-linecap="round" stroke-linejoin="round"/><path d="M190.283 5.029h-57.789a1.81 1.81 0 100 3.624h57.789a1.813 1.813 0 001.812-1.812 1.815 1.815 0 00-1.812-1.812z" fill="#DFDFDF"/><path d="M145.483 5.029h-12.989a1.81 1.81 0 100 3.624h13l-.011-3.624z" fill="#495FFD"/><path d="M125.627 5.345h-3.045V8.39h3.045V5.345z" stroke="#333" stroke-width="1.446" stroke-linecap="round" stroke-linejoin="round"/><g style="mix-blend-mode:multiply" opacity=".45"><path d="M195.859 35.188h-79.458a3.86 3.86 0 00-3.86 3.86v3.378a3.86 3.86 0 003.86 3.86h79.458a3.86 3.86 0 003.859-3.86v-3.378a3.86 3.86 0 00-3.859-3.86z" fill="#495FFD" opacity=".45"/><path d="M195.859 35.188h-79.458a3.86 3.86 0 00-3.86 3.86v3.378a3.86 3.86 0 003.86 3.86h79.458a3.86 3.86 0 003.859-3.86v-3.378a3.86 3.86 0 00-3.859-3.86z" stroke="#495FFD" stroke-width="1.446" stroke-linecap="round" stroke-linejoin="round" opacity=".45"/></g><path d="M192.867 32.192h-79.458a3.86 3.86 0 00-3.859 3.86v3.377a3.86 3.86 0 003.859 3.86h79.458a3.86 3.86 0 003.86-3.86V36.05a3.86 3.86 0 00-3.86-3.86z" fill="#fff"/><path d="M192.867 32.192h-79.458a3.86 3.86 0 00-3.859 3.86v3.377a3.86 3.86 0 003.859 3.86h79.458a3.86 3.86 0 003.86-3.86V36.05a3.86 3.86 0 00-3.86-3.86z" stroke="#333" stroke-width="1.446" stroke-linecap="round" stroke-linejoin="round"/><path d="M190.283 35.928h-57.789a1.811 1.811 0 00-1.812 1.812 1.814 1.814 0 001.812 1.812h57.789a1.813 1.813 0 001.812-1.812 1.813 1.813 0 00-1.812-1.812z" fill="#DFDFDF"/><path d="M188.085 35.928h-55.591a1.806 1.806 0 00-1.281.53 1.8 1.8 0 00-.531 1.282 1.814 1.814 0 001.812 1.812h55.591v-3.624z" fill="#495FFD"/><path d="M125.627 36.25h-3.045v3.045h3.045V36.25zM113.195 7.409c-9.081 0-8.641 6.883-16.843 6.883" stroke="#333" stroke-width="1.446" stroke-linecap="round" stroke-linejoin="round"/><path d="M93.307 14.292a1.534 1.534 0 011.528-1.528v0a1.527 1.527 0 011.076 2.605 1.522 1.522 0 01-1.076.446v0a1.528 1.528 0 01-1.528-1.523zM113.195 7.409a1.526 1.526 0 011.523-1.528v0a1.526 1.526 0 010 3.05v0a1.524 1.524 0 01-1.523-1.522v0zM93.307 22.66a1.529 1.529 0 011.528-1.522v0a1.522 1.522 0 011.522 1.522v0a1.522 1.522 0 01-1.522 1.523v0a1.528 1.528 0 01-1.528-1.523zM113.195 22.66a1.52 1.52 0 011.523-1.522v0a1.522 1.522 0 011.522 1.522v0a1.52 1.52 0 01-1.522 1.523v0a1.524 1.524 0 01-1.523-1.523v0z" fill="#333" stroke="#333" stroke-width="1.446" stroke-linecap="round" stroke-linejoin="round"/><path d="M113.2 22.66H96.357M113.195 37.376c-9.081 0-8.641-6.884-16.843-6.884" stroke="#333" stroke-width="1.446" stroke-linecap="round" stroke-linejoin="round"/><path d="M93.307 30.492a1.528 1.528 0 001.528 1.523v0a1.522 1.522 0 001.522-1.523v0a1.523 1.523 0 00-1.522-1.522v0a1.528 1.528 0 00-1.528 1.522zM113.195 37.376a1.52 1.52 0 001.523 1.522v0a1.522 1.522 0 001.522-1.522v0a1.52 1.52 0 00-1.522-1.523v0a1.524 1.524 0 00-1.523 1.523v0z" fill="#333" stroke="#333" stroke-width="1.446" stroke-linecap="round" stroke-linejoin="round"/></svg>